# File created by Blade
# Date/Time:  Tue Jan 27 19:18:50 2015
#---------------------------------------------------------
:version 1.10
:name HOM
:units
  mass 1.0
  length 1.000000
  angle deg
:documentation
     Acclaim Skeleton File
:root
   axis xyz
   order TX TY TZ RX RY RZ
   position 0.000000 0.000000 0.000000
   orientation 0 0 0
:bonedata
   begin
      id 1
      name Spine_dum
      direction 0.000000 1.000000 0.000000
      length 6.116652
      axis 0.0 0.0 0.0 xyz
   end
   begin
      id 2
      name LeftUpLeg_dum
      direction 1.000000 0.000000 0.000000
      length 4.711765
      axis 0.0 0.0 0.0 xyz
   end
   begin
      id 3
      name RightUpLeg_dum
      direction -1.000000 0.000000 0.000000
      length 4.711765
      axis 0.0 0.0 0.0 xyz
   end
   begin
      id 4
      name Spine
      direction 0.000000 1.000000 0.000000
      length 0.000000
      axis 0.0 0.0 0.0 xyz
      dof rx ry rz
   end
   begin
      id 5
      name Spine_dum1
      direction 0.000000 1.000000 0.000000
      length 15.225563
      axis 0.0 0.0 0.0 xyz
   end
   begin
      id 6
      name Spine_dum2
      direction 0.000000 1.000000 0.000000
      length 8.977654
      axis 0.0 0.0 0.0 xyz
   end
   begin
      id 7
      name Spine_dum3
      direction 0.000000 1.000000 0.000000
      length 8.977654
      axis 0.0 0.0 0.0 xyz
   end
   begin
      id 8
      name Head
      direction 0.000000 1.000000 0.000000
      length 4.527550
      axis 0.0 0.0 0.0 xyz
      dof rx ry rz
   end
   begin
      id 9
      name LeftShoulder
      direction 1.000000 0.000000 0.000000
      length 7.110130
      axis 0.0 0.0 -90.0 xyz
      dof rx ry rz
   end
   begin
      id 10
      name LeftArm
      direction 1.000000 0.000000 0.000000
      length 10.398341
      axis 0.0 0.0 -90.0 xyz
      dof rx ry rz
   end
   begin
      id 11
      name LeftForeArm
      direction 1.000000 0.000000 0.000000
      length 8.888997
      axis 0.0 0.0 -90.0 xyz
      dof ry rz rx
   end
   begin
      id 12
      name LeftHand
      direction 0.000000 0.000000 0.000000
      length 0.000000
      axis 0.0 0.0 -90.0 xyz
      dof rx ry rz
   end
   begin
      id 13
      name LeftHand_dum1
      direction 0.000000 0.000000 0.000000
      length 0.000000
      axis 0.0 0.0 -90.0 xyz
   end
   begin
      id 14
      name LeftHand_dum2
      direction 1.000000 0.000000 0.000000
      length 3.937000
      axis 0.0 0.0 -90.0 xyz
   end
   begin
      id 15
      name LeftHandThumb1
      direction 0.000000 0.000000 1.000000
      length 3.937000
      axis 0.0 0.0 -90.0 xyz
      dof rx rz ry
   end
   begin
      id 16
      name RightShoulder
      direction -1.000000 0.000000 0.000000
      length 7.110130
      axis 0.0 0.0 90.0 xyz
      dof rx ry rz
   end
   begin
      id 17
      name RightArm
      direction -1.000000 0.000000 0.000000
      length 10.398341
      axis 0.0 0.0 90.0 xyz
      dof rx ry rz
   end
   begin
      id 18
      name RightForeArm
      direction -1.000000 0.000000 0.000000
      length 8.888997
      axis 0.0 0.0 90.0 xyz
      dof ry rz rx
   end
   begin
      id 19
      name RightHand
      direction 0.000000 0.000000 0.000000
      length 0.000000
      axis 0.0 0.0 90.0 xyz
      dof rx ry rz
   end
   begin
      id 20
      name RightHand_dum1
      direction 0.000000 0.000000 0.000000
      length 0.000000
      axis 0.0 0.0 90.0 xyz
   end
   begin
      id 21
      name RightHand_dum2
      direction -1.000000 0.000000 0.000000
      length 3.937000
      axis 0.0 0.0 90.0 xyz
   end
   begin
      id 22
      name RightHandThumb1
      direction 0.000000 0.000000 1.000000
      length 3.937000
      axis 0.0 0.0 90.0 xyz
      dof rx rz ry
   end
   begin
      id 23
      name LeftUpLeg
      direction 0.000000 -1.000000 0.000000
      length 15.510451
      axis 0.0 0.0 0.0 xyz
      dof rx ry rz
   end
   begin
      id 24
      name LeftLeg
      direction 0.000000 -1.000000 0.000000
      length 14.858061
      axis 0.0 0.0 0.0 xyz
      dof rx ry rz
   end
   begin
      id 25
      name LeftFoot
      direction 0.000000 -0.258819 0.965926
      length 5.128852
      axis 15.0 0.0 0.0 xyz
      dof rx ry rz
   end
   begin
      id 26
      name LeftToeBase
      direction 0.000000 0.000000 1.000000
      length 2.952750
      axis 0.0 0.0 0.0 xyz
      dof rx ry rz
   end
   begin
      id 27
      name RightUpLeg
      direction 0.000000 -1.000000 0.000000
      length 15.510451
      axis 0.0 0.0 0.0 xyz
      dof rx ry rz
   end
   begin
      id 28
      name RightLeg
      direction 0.000000 -1.000000 0.000000
      length 14.858061
      axis 0.0 0.0 0.0 xyz
      dof rx ry rz
   end
   begin
      id 29
      name RightFoot
      direction 0.000000 -0.258819 0.965926
      length 5.128852
      axis 15.0 0.0 0.0 xyz
      dof rx ry rz
   end
   begin
      id 30
      name RightToeBase
      direction 0.000000 0.000000 1.000000
      length 2.952750
      axis 0.0 0.0 0.0 xyz
      dof rx ry rz
   end
:hierarchy
   begin
      root Spine_dum LeftUpLeg_dum RightUpLeg_dum
      Spine_dum Spine
      LeftUpLeg_dum LeftUpLeg
      RightUpLeg_dum RightUpLeg
      Spine Spine_dum1 Spine_dum2 Spine_dum3
      Spine_dum1 Head
      Spine_dum2 LeftShoulder
      Spine_dum3 RightShoulder
      LeftShoulder LeftArm
      LeftArm LeftForeArm
      LeftForeArm LeftHand
      LeftHand LeftHand_dum1 LeftHand_dum2
      LeftHand_dum1 LeftHandThumb1
      RightShoulder RightArm
      RightArm RightForeArm
      RightForeArm RightHand
      RightHand RightHand_dum1 RightHand_dum2
      RightHand_dum1 RightHandThumb1
      LeftUpLeg LeftLeg
      LeftLeg LeftFoot
      LeftFoot LeftToeBase
      RightUpLeg RightLeg
      RightLeg RightFoot
      RightFoot RightToeBase
   end

# File created by Blade
# Date/Time:  Tue Jan 27 19:18:41 2015
# Frame Rate: 120.000 fps
#------------------------------------------------------
:FULLY-SPECIFIED
:DEGREES
520
root 5.085875 32.290635 1.442121 0.647779 30.169325 4.997465
Spine -2.026757 28.710749 -2.769645
Head -3.952544 -28.391360 -14.823691
LeftShoulder -6.001634 -8.853960 20.198139
LeftArm -2.895707 43.135089 -100.328888
LeftForeArm 6.167970 -0.000000 13.072599
LeftHand 10.813124 -0.000000 -6.037138
LeftHandThumb1 -26.253704 0.000000 33.147579
RightShoulder -1.620012 26.532586 -48.383127
RightArm 80.153128 29.436973 130.310591
RightForeArm 29.907232 -0.000000 146.606749
RightHand 30.644748 -0.000000 -18.322633
RightHandThumb1 -24.326973 -0.000000 -32.862282
LeftUpLeg 4.750872 -17.880133 -5.034728
LeftLeg 2.917073 -0.000000 -0.000000
LeftFoot -10.473919 3.445212 -20.261797
LeftToeBase 18.175117 -0.000000 -0.000000
RightUpLeg 14.581269 -26.990420 -5.081804
RightLeg -2.695701 -0.000000 0.000000
RightFoot -18.139106 -21.506800 20.021062
RightToeBase 9.237477 -0.000000 -0.000000
521
root 5.085679 32.289824 1.445729 0.648493 30.164639 4.989366
Spine -2.015318 28.725451 -2.772832
Head -4.006192 -28.396436 -14.765447
LeftShoulder -6.004568 -8.859455 20.198830
LeftArm -2.919780 43.181877 -100.375348
LeftForeArm 6.192024 0.000000 13.065584
LeftHand 10.802776 -0.000000 -6.067441
LeftHandThumb1 -26.253704 0.000000 33.147579
RightShoulder -1.615666 26.563475 -48.369682
RightArm 80.108171 29.442685 130.333176
RightForeArm 29.684520 -0.000000 145.878291
RightHand 30.621263 -0.000000 -17.693605
RightHandThumb1 -24.326973 -0.000000 -32.862282
LeftUpLeg 4.753910 -17.878332 -5.026342
LeftLeg 2.915807 -0.000000 -0.000000
LeftFoot -10.488236 3.456807 -20.218239
LeftToeBase 18.134308 -0.000000 -0.000000
RightUpLeg 14.578143 -26.987426 -5.072268
RightLeg -2.687376 -0.000000 0.000000
RightFoot -18.162147 -21.496968 20.033495
RightToeBase 9.233906 -0.000000 -0.000000
522
root 5.086047 32.288604 1.449142 0.655234 30.152164 4.990577
Spine -2.007055 28.741670 -2.780767
Head -4.067320 -28.393317 -14.707126
LeftShoulder -5.994458 -8.865694 20.205972
LeftArm -2.970788 43.194073 -100.452028
LeftForeArm 6.221221 0.000000 13.070950
LeftHand 10.750465 -0.000000 -6.041783
LeftHandThumb1 -26.253704 0.000000 33.147579
RightShoulder -1.611347 26.630936 -48.380914
RightArm 79.902946 29.460206 130.120218
RightForeArm 29.090342 0.000000 145.030672
RightHand 30.198750 0.000000 -17.838897
RightHandThumb1 -24.326973 -0.000000 -32.862282
LeftUpLeg 4.753110 -17.875244 -5.027267
LeftLeg 2.920392 -0.000000 -0.000000
LeftFoot -10.502706 3.467460 -20.212623
LeftToeBase 18.077979 -0.000000 -0.000000
RightUpLeg 14.572210 -26.967541 -5.067791
RightLeg -2.683569 -0.000000 0.000000
RightFoot -18.183102 -21.490829 20.063693
RightToeBase 9.223788 -0.000000 -0.000000
523
root 5.086964 32.287344 1.451677 0.656238 30.153341 4.991187
Spine -1.988811 28.748495 -2.773687
Head -4.100953 -28.394560 -14.673325
LeftShoulder -5.980064 -8.857820 20.209077
LeftArm -2.994441 43.228680 -100.534374
LeftForeArm 6.224754 -0.000000 13.040478
LeftHand 10.725723 -0.000000 -5.962752
LeftHandThumb1 -26.253704 0.000000 33.147579
RightShoulder -1.619289 26.737773 -48.417061
RightArm 79.625584 29.445534 129.880280
RightForeArm 28.633678 -0.000000 143.896124
RightHand 30.049390 -0.000000 -17.657727
RightHandThumb1 -24.326973 -0.000000 -32.862282
LeftUpLeg 4.758082 -17.904988 -5.033783
LeftLeg 2.921547 -0.000000 -0.000000
LeftFoot -10.525366 3.498772 -20.217023
LeftToeBase 18.053468 -0.000000 -0.000000
RightUpLeg 14.580635 -26.986210 -5.074542
RightLeg -2.686800 -0.000000 0.000000
RightFoot -18.176503 -21.472973 20.052791
RightToeBase 9.190106 -0.000000 -0.000000
524
root 5.087204 32.285361 1.455122 0.650770 30.151070 4.989354
Spine -1.970821 28.728609 -2.772302
Head -4.148243 -28.360057 -14.625329
LeftShoulder -5.960953 -8.877795 20.239551
LeftArm -3.077407 43.258833 -100.642291
LeftForeArm 6.168064 0.000000 13.041989
LeftHand 10.685940 -0.000000 -6.032417
LeftHandThumb1 -26.253704 0.000000 33.147579
RightShoulder -1.607767 26.816194 -48.467691
RightArm 79.356451 29.424769 129.629755
RightForeArm 28.423647 -0.000000 142.514639
RightHand 29.795045 -0.000000 -17.294110
RightHandThumb1 -24.326973 -0.000000 -32.862282
LeftUpLeg 4.767590 -17.897812 -5.034025
LeftLeg 2.925879 -0.000000 -0.000000
LeftFoot -10.553626 3.494448 -20.205518
LeftToeBase 17.991497 -0.000000 -0.000000
RightUpLeg 14.591157 -26.972295 -5.071564
RightLeg -2.688036 -0.000000 0.000000
RightFoot -18.185833 -21.492825 20.026129
RightToeBase 9.188415 -0.000000 -0.000000
525
root 5.088751 32.284263 1.458465 0.646532 30.154877 4.994452
Spine -1.956658 28.684387 -2.769399
Head -4.167289 -28.320219 -14.590873
LeftShoulder -5.966030 -8.829817 20.261114
LeftArm -3.082253 43.136489 -100.710887
LeftForeArm 6.288026 -0.000000 13.010493
LeftHand 10.670656 -0.000000 -6.086397
LeftHandThumb1 -26.253704 0.000000 33.147579
RightShoulder -1.598373 26.879334 -48.548982
RightArm 79.050919 29.403069 129.287667
RightForeArm 28.505529 -0.000000 140.971782
RightHand 29.645025 -0.000000 -16.949122
RightHandThumb1 -24.326973 -0.000000 -32.862282
LeftUpLeg 4.784123 -17.921687 -5.045618
LeftLeg 2.925375 -0.000000 -0.000000
LeftFoot -10.571589 3.514100 -20.256956
LeftToeBase 18.062584 -0.000000 -0.000000
RightUpLeg 14.609939 -26.992213 -5.086977
RightLeg -2.687741 -0.000000 0.000000
RightFoot -18.199320 -21.470583 20.037021
RightToeBase 9.191044 -0.000000 -0.000000
526
root 5.091046 32.283578 1.461633 0.641397 30.152675 5.003621
Spine -1.957504 28.604126 -2.748176
Head -4.097210 -28.214982 -14.633663
LeftShoulder -5.962933 -8.777300 20.259025
LeftArm -3.124508 43.063800 -100.773753
LeftForeArm 6.254711 -0.000000 12.989030
LeftHand 10.657415 -0.000000 -6.153924
LeftHandThumb1 -26.253704 0.000000 33.147579
RightShoulder -1.492429 27.023417 -48.644205
RightArm 78.659673 29.449620 128.822718
RightForeArm 28.819633 -0.000000 139.273999
RightHand 29.550232 0.000000 -16.767573
RightHandThumb1 -24.326973 -0.000000 -32.862282
LeftUpLeg 4.804087 -17.932474 -5.062796
LeftLeg 2.938246 -0.000000 -0.000000
LeftFoot -10.575963 3.512610 -20.177777
LeftToeBase 17.981935 -0.000000 -0.000000
RightUpLeg 14.630723 -26.990754 -5.103431
RightLeg -2.694077 -0.000000 0.000000
RightFoot -18.200405 -21.474571 20.035567
RightToeBase 9.193446 -0.000000 -0.000000
527
root 5.091764 32.282867 1.465697 0.634618 30.149823 5.007791
Spine -1.933915 28.606812 -2.763804
Head -4.139637 -28.224087 -14.538456
LeftShoulder -5.949589 -8.811477 20.296446
LeftArm -3.187605 43.023272 -100.877212
LeftForeArm 6.232561 -0.000000 12.935201
LeftHand 10.671877 -0.000000 -6.158450
LeftHandThumb1 -26.253704 0.000000 33.147579
RightShoulder -1.542203 27.132002 -48.767961
RightArm 78.231682 29.474006 128.300130
RightForeArm 29.447693 -0.000000 137.405342
RightHand 29.625592 -0.000000 -16.195881
RightHandThumb1 -24.326973 -0.000000 -32.862282
LeftUpLeg 4.823313 -17.911427 -5.066075
LeftLeg 2.915790 -0.000000 -0.000000
LeftFoot -10.565845 3.511756 -20.231032
LeftToeBase 17.986835 -0.000000 -0.000000
RightUpLeg 14.651888 -26.956306 -5.104077
RightLeg -2.707637 -0.000000 0.000000
RightFoot -18.209248 -21.508041 20.036360
RightToeBase 9.188440 -0.000000 -0.000000
528
root 5.093159 32.282345 1.469488 0.619407 30.153580 5.010900
Spine -1.928769 28.557305 -2.758742
Head -4.174945 -28.398914 -14.445532
LeftShoulder -5.934187 -8.770001 20.304626
LeftArm -3.187836 42.947419 -100.913317
LeftForeArm 6.179036 -0.000000 12.887310
LeftHand 10.656077 -0.000000 -6.225539
LeftHandThumb1 -26.253704 0.000000 33.147579
RightShoulder -1.480020 27.010082 -48.878328
RightArm 78.092412 29.415542 127.911113
RightForeArm 30.012973 0.000000 135.471169
RightHand 29.783891 0.000000 -15.647454
RightHandThumb1 -24.326973 -0.000000 -32.862282
LeftUpLeg 4.849608 -17.912640 -5.074671
LeftLeg 2.910775 -0.000000 -0.000000
LeftFoot -10.572782 3.508409 -20.238534
LeftToeBase 18.021426 -0.000000 -0.000000
RightUpLeg 14.683251 -26.932814 -5.111723
RightLeg -2.716409 -0.000000 0.000000
RightFoot -18.297033 -21.504458 20.175632
RightToeBase 9.233615 -0.000000 -0.000000
529
root 5.094185 32.282496 1.472367 0.610259 30.144594 5.017381
Spine -1.923670 28.516030 -2.759815
Head -4.171000 -28.462485 -14.383890
LeftShoulder -5.939265 -8.752516 20.309549
LeftArm -3.206255 42.893056 -100.960289
LeftForeArm 6.160535 -0.000000 12.821530
LeftHand 10.645902 -0.000000 -6.171851
LeftHandThumb1 -26.253704 0.000000 33.147579
RightShoulder -1.420119 26.991931 -48.972411
RightArm 77.843658 29.376394 127.368819
RightForeArm 30.417031 -0.000000 133.516385
RightHand 29.778060 -0.000000 -15.170922
RightHandThumb1 -24.326973 -0.000000 -32.862282
LeftUpLeg 4.867308 -17.944352 -5.088231
LeftLeg 2.932927 -0.000000 -0.000000
LeftFoot -10.578947 3.516854 -20.201688
LeftToeBase 17.914952 -0.000000 -0.000000
RightUpLeg 14.695592 -26.880139 -5.108597
RightLeg -2.721028 -0.000000 0.000000
RightFoot -18.253532 -21.571488 20.090062
RightToeBase 9.239026 -0.000000 -0.000000
530
root 5.092649 32.282000 1.476886 0.595594 30.131209 5.017133
Spine -1.909819 28.443983 -2.754909
Head -3.931430 -28.007466 -14.473880
LeftShoulder -5.984312 -8.750926 20.317349
LeftArm -3.244635 42.834639 -100.996909
LeftForeArm 6.124786 -0.000000 12.771643
LeftHand 10.650717 -0.000000 -6.210962
LeftHandThumb1 -26.253704 0.000000 33.147579
RightShoulder -1.347802 27.063949 -49.053055
RightArm 77.587933 29.346037 126.813547
RightForeArm 30.479011 -0.000000 131.555478
RightHand 29.483302 -0.000000 -14.718387
RightHandThumb1 -24.326973 -0.000000 -32.862282
LeftUpLeg 4.889994 -17.913822 -5.086164
LeftLeg 2.919634 -0.000000 -0.000000
LeftFoot -10.590184 3.521918 -20.260933
LeftToeBase 18.020869 -0.000000 -0.000000
RightUpLeg 14.709589 -26.860831 -5.108276
RightLeg -2.712346 -0.000000 0.000000
RightFoot -18.335095 -21.572457 20.182393
RightToeBase 9.288531 -0.000000 -0.000000
531
root 5.092131 32.282998 1.480248 0.587733 30.115474 5.019970
Spine -1.904489 28.396371 -2.753795
Head -3.954900 -28.089790 -14.403434
LeftShoulder -6.002815 -8.752112 20.304605
LeftArm -3.279360 42.805712 -101.024003
LeftForeArm 6.046016 -0.000000 12.717533
LeftHand 10.661640 -0.000000 -6.115198
LeftHandThumb1 -26.253704 0.000000 33.147579
RightShoulder -1.304064 26.813013 -49.113615
RightArm 77.628049 29.110857 126.355867
RightForeArm 30.274522 -0.000000 129.536829
RightHand 29.203360 -0.000000 -13.711916
RightHandThumb1 -24.326973 -0.000000 -32.862282
LeftUpLeg 4.908014 -17.887660 -5.089696
LeftLeg 2.911784 -0.000000 -0.000000
LeftFoot -10.574752 3.526138 -20.241909
LeftToeBase 18.012068 -0.000000 -0.000000
RightUpLeg 14.713186 -26.805434 -5.098013
RightLeg -2.711515 -0.000000 0.000000
RightFoot -18.271029 -21.646120 20.075644
RightToeBase 9.223327 -0.000000 -0.000000
